<?xml version="1.0" encoding="UTF-8" standalone="no"?>
<svg
   xmlns:dc="http://purl.org/dc/elements/1.1/"
   xmlns:cc="http://creativecommons.org/ns#"
   xmlns:rdf="http://www.w3.org/1999/02/22-rdf-syntax-ns#"
   xmlns:svg="http://www.w3.org/2000/svg"
   xmlns="http://www.w3.org/2000/svg"
   xmlns:xlink="http://www.w3.org/1999/xlink"
   xmlns:sodipodi="http://sodipodi.sourceforge.net/DTD/sodipodi-0.dtd"
   xmlns:inkscape="http://www.inkscape.org/namespaces/inkscape"
   id="Layer_1"
   viewBox="0 0 60 57"
   version="1.1"
   sodipodi:docname="bell-home.svg"
   inkscape:version="0.92.3 (2405546, 2018-03-11)">
  <metadata
     id="metadata23">
    <rdf:RDF>
      <cc:Work
         rdf:about="">
        <dc:format>image/svg+xml</dc:format>
        <dc:type
           rdf:resource="http://purl.org/dc/dcmitype/StillImage" />
      </cc:Work>
    </rdf:RDF>
  </metadata>
  <sodipodi:namedview
     pagecolor="#ffffff"
     bordercolor="#666666"
     borderopacity="1"
     objecttolerance="10"
     gridtolerance="10"
     guidetolerance="10"
     inkscape:pageopacity="0"
     inkscape:pageshadow="2"
     inkscape:window-width="798"
     inkscape:window-height="480"
     id="namedview21"
     showgrid="false"
     inkscape:zoom="4.1403509"
     inkscape:cx="30"
     inkscape:cy="28.5"
     inkscape:window-x="49"
     inkscape:window-y="25"
     inkscape:window-maximized="0"
     inkscape:current-layer="Layer_1" />
  <style
     id="style2">.st0{clip-path:url(#SVGID_2_);fill:#98c441}</style>
  <defs
     id="defs5">
    <path
       id="SVGID_1_"
       d="M0 0h60v57H0z" />
  </defs>
  <clipPath
     id="SVGID_2_">
    <use
       xlink:href="#SVGID_1_"
       overflow="visible"
       id="use7" />
  </clipPath>
  <path
     class="st0"
     d="M57 51H35.7l-1.2-3H57c.6 0 1-.4 1-1v-2c0-1.3-.8-2.4-2-2.8-.5-13.7-11.4-24.6-25-25.2v-2h2c1.7 0 3-1.3 3-3s-1.3-3-3-3h-6c-1.7 0-3 1.3-3 3s1.3 3 3 3h2v2c-13.6.6-24.5 11.5-25 25.2-1.2.4-2 1.5-2 2.8v2c0 .6.4 1 1 1h22.5l-1.2 3H3c-1.7 0-3 1.3-3 3v2c0 .6.4 1 1 1h58c.6 0 1-.4 1-1v-2c0-1.7-1.3-3-3-3M26 12c0-.6.4-1 1-1h6c.6 0 1 .4 1 1s-.4 1-1 1h-6c-.6 0-1-.4-1-1m4 7c12.9 0 23.4 10.2 24 23H6c.6-12.8 11.1-23 24-23M4 45c0-.6.4-1 1-1h50c.6 0 1 .4 1 1v1H4v-1zm23.7 3h4.6l1.2 3h-7l1.2-3zM58 55H2v-1c0-.6.4-1 1-1h54c.6 0 1 .4 1 1v1z"
     clip-path="url(#SVGID_2_)"
     id="path10"
     style="fill:#ffffff" />
  <path
     class="st0"
     d="M9.3 35.7l1.9.7c1.7-4.7 5-8.6 9.3-10.9l-1-1.8c-4.8 2.5-8.4 6.8-10.2 12m12.3-13l.8 1.8c.6-.3 1.3-.5 1.9-.7l-.6-1.9c-.7.2-1.4.5-2.1.8M29 0h2v6h-2zM16 11h6v2h-6z"
     clip-path="url(#SVGID_2_)"
     id="path12"
     style="fill:#ffffff" />
  <path
     transform="rotate(134.999 21.88 4.878)"
     class="st0"
     d="M20.9 1.9h2v6h-2z"
     clip-path="url(#SVGID_2_)"
     id="path14"
     style="fill:#ffffff" />
  <path
     transform="rotate(134.991 38.122 4.879)"
     class="st0"
     d="M35.1 3.9h6v2h-6z"
     clip-path="url(#SVGID_2_)"
     id="path16"
     style="fill:#ffffff" />
  <path
     class="st0"
     d="M38 11h6v2h-6z"
     clip-path="url(#SVGID_2_)"
     id="path18"
     style="fill:#ffffff" />
</svg>
